<?xml version="1.0" encoding="UTF-8" standalone="no"?>
<!DOCTYPE svg PUBLIC "-//W3C//DTD SVG 1.1//EN"
 "http://www.w3.org/Graphics/SVG/1.1/DTD/svg11.dtd">
<!-- Generated by graphviz version 2.36.0 (20140111.2315)
 -->
<!-- Title: G Pages: 1 -->
<svg width="989pt" height="604pt"
 viewBox="0.00 0.00 989.00 604.00" xmlns="http://www.w3.org/2000/svg" xmlns:xlink="http://www.w3.org/1999/xlink">
<g id="graph0" class="graph" transform="scale(1 1) rotate(0) translate(4 600)">
<title>G</title>
<polygon fill="white" stroke="none" points="-4,4 -4,-600 985,-600 985,4 -4,4"/>
<!-- 1 -->
<g id="node1" class="node"><title>1</title>
<ellipse fill="none" stroke="black" cx="255" cy="-562" rx="167.346" ry="33.2511"/>
<text text-anchor="middle" x="255" y="-570.4" font-family="Times,serif" font-size="14.00">1 你知道自己的未来是什么样子吗？</text>
<text text-anchor="middle" x="255" y="-550.8" font-family="Times,serif" font-size="14.00">未来基于个人和世界的复利</text>
</g>
<!-- 2 -->
<g id="node2" class="node"><title>2</title>
<ellipse fill="none" stroke="black" cx="255" cy="-438" rx="156.997" ry="33.2511"/>
<text text-anchor="middle" x="255" y="-446.4" font-family="Times,serif" font-size="14.00">2 你知道那条曲线究竟是什么吗？</text>
<text text-anchor="middle" x="255" y="-426.8" font-family="Times,serif" font-size="14.00">复利曲线</text>
</g>
<!-- 1&#45;&gt;2 -->
<g id="edge1" class="edge"><title>1&#45;&gt;2</title>
<path fill="none" stroke="black" d="M255,-528.306C255,-514.084 255,-497.224 255,-482.005"/>
<polygon fill="black" stroke="black" points="258.5,-481.784 255,-471.784 251.5,-481.784 258.5,-481.784"/>
<text text-anchor="middle" x="339" y="-498.6" font-family="Times,serif" font-size="14.00">未来基于个人和世界的复利</text>
</g>
<!-- 3 -->
<g id="node3" class="node"><title>3</title>
<ellipse fill="none" stroke="black" cx="255" cy="-314" rx="208.956" ry="33.2511"/>
<text text-anchor="middle" x="255" y="-322.4" font-family="Times,serif" font-size="14.00">3 究竟什么是财富自由？</text>
<text text-anchor="middle" x="255" y="-302.8" font-family="Times,serif" font-size="14.00">再也不用为了满足生活必须而出售自己的时间</text>
</g>
<!-- 2&#45;&gt;3 -->
<g id="edge2" class="edge"><title>2&#45;&gt;3</title>
<path fill="none" stroke="black" d="M255,-404.306C255,-390.084 255,-373.224 255,-358.005"/>
<polygon fill="black" stroke="black" points="258.5,-357.784 255,-347.784 251.5,-357.784 258.5,-357.784"/>
<text text-anchor="middle" x="402" y="-374.6" font-family="Times,serif" font-size="14.00">越过曲线，实现财富自由，首先要明确「概念」</text>
</g>
<!-- 4 -->
<g id="node4" class="node"><title>4</title>
<ellipse fill="none" stroke="black" cx="166" cy="-190" rx="139.184" ry="33.2511"/>
<text text-anchor="middle" x="166" y="-198.4" font-family="Times,serif" font-size="14.00">4 起步时最重要的是什么？</text>
<text text-anchor="middle" x="166" y="-178.8" font-family="Times,serif" font-size="14.00">用MAKE起步，然后「改进」</text>
</g>
<!-- 3&#45;&gt;4 -->
<g id="edge3" class="edge"><title>3&#45;&gt;4</title>
<path fill="none" stroke="black" d="M231.383,-280.627C220.332,-265.478 207.059,-247.283 195.368,-231.257"/>
<polygon fill="black" stroke="black" points="198.139,-229.117 189.418,-223.101 192.484,-233.243 198.139,-229.117"/>
</g>
<!-- 5 -->
<g id="node5" class="node"><title>5</title>
<ellipse fill="none" stroke="black" cx="491" cy="-190" rx="167.346" ry="33.2511"/>
<text text-anchor="middle" x="491" y="-198.4" font-family="Times,serif" font-size="14.00">5 你认真考虑过自己的商业模式吗？</text>
<text text-anchor="middle" x="491" y="-178.8" font-family="Times,serif" font-size="14.00">三种商业模式</text>
</g>
<!-- 3&#45;&gt;5 -->
<g id="edge4" class="edge"><title>3&#45;&gt;5</title>
<path fill="none" stroke="black" d="M315.163,-281.899C348.134,-264.855 389.107,-243.674 423.205,-226.046"/>
<polygon fill="black" stroke="black" points="424.895,-229.113 432.171,-221.412 421.681,-222.895 424.895,-229.113"/>
<text text-anchor="middle" x="506" y="-250.6" font-family="Times,serif" font-size="14.00">出售时间的方式就是「个人商业模式」</text>
</g>
<!-- 6 -->
<g id="node6" class="node"><title>6</title>
<ellipse fill="none" stroke="black" cx="158" cy="-98" rx="156.997" ry="19.5322"/>
<text text-anchor="middle" x="158" y="-96.6" font-family="Times,serif" font-size="14.00">6 如何优化第一种个人商业模式？</text>
</g>
<!-- 5&#45;&gt;6 -->
<g id="edge5" class="edge"><title>5&#45;&gt;6</title>
<path fill="none" stroke="black" d="M393.787,-162.726C341.524,-148.601 278.176,-131.48 230.307,-118.542"/>
<polygon fill="black" stroke="black" points="231.209,-115.161 220.642,-115.93 229.383,-121.918 231.209,-115.161"/>
</g>
<!-- 7 -->
<g id="node7" class="node"><title>7</title>
<ellipse fill="none" stroke="black" cx="491" cy="-98" rx="156.997" ry="19.5322"/>
<text text-anchor="middle" x="491" y="-96.6" font-family="Times,serif" font-size="14.00">7 如何优化第二种个人商业模式？</text>
</g>
<!-- 5&#45;&gt;7 -->
<g id="edge6" class="edge"><title>5&#45;&gt;7</title>
<path fill="none" stroke="black" d="M491,-156.508C491,-147.099 491,-136.897 491,-127.735"/>
<polygon fill="black" stroke="black" points="494.5,-127.566 491,-117.566 487.5,-127.566 494.5,-127.566"/>
</g>
<!-- 8 -->
<g id="node8" class="node"><title>8</title>
<ellipse fill="none" stroke="black" cx="824" cy="-98" rx="156.997" ry="19.5322"/>
<text text-anchor="middle" x="824" y="-96.6" font-family="Times,serif" font-size="14.00">7 如何优化第三种个人商业模式？</text>
</g>
<!-- 5&#45;&gt;8 -->
<g id="edge7" class="edge"><title>5&#45;&gt;8</title>
<path fill="none" stroke="black" d="M588.213,-162.726C640.476,-148.601 703.824,-131.48 751.693,-118.542"/>
<polygon fill="black" stroke="black" points="752.617,-121.918 761.358,-115.93 750.791,-115.161 752.617,-121.918"/>
</g>
<!-- 9 -->
<g id="node9" class="node"><title>9</title>
<ellipse fill="none" stroke="black" cx="824" cy="-20" rx="31.1693" ry="19.5322"/>
<text text-anchor="middle" x="824" y="-18.6" font-family="Times,serif" font-size="14.00">升级</text>
</g>
<!-- 8&#45;&gt;9 -->
<g id="edge8" class="edge"><title>8&#45;&gt;9</title>
<path fill="none" stroke="black" d="M824,-78.2135C824,-69.6543 824,-59.3303 824,-49.8218"/>
<polygon fill="black" stroke="black" points="827.5,-49.5704 824,-39.5704 820.5,-49.5705 827.5,-49.5704"/>
</g>
</g>
</svg>
