<?xml version="1.0" encoding="UTF-8" standalone="no"?>
<!DOCTYPE svg PUBLIC "-//W3C//DTD SVG 1.1//EN"
 "http://www.w3.org/Graphics/SVG/1.1/DTD/svg11.dtd">
<!-- Generated by graphviz version 2.36.0 (20140111.2315)
 -->
<!-- Title: index Pages: 1 -->
<svg width="942pt" height="632pt"
 viewBox="0.00 0.00 942.00 632.00" xmlns="http://www.w3.org/2000/svg" xmlns:xlink="http://www.w3.org/1999/xlink">
<g id="graph0" class="graph" transform="scale(1 1) rotate(0) translate(4 628)">
<title>index</title>
<polygon fill="white" stroke="none" points="-4,4 -4,-628 938,-628 938,4 -4,4"/>
<!-- 1 -->
<g id="node1" class="node"><title>1</title>
<ellipse fill="none" stroke="black" cx="467" cy="-590" rx="169.558" ry="33.2511"/>
<text text-anchor="middle" x="467" y="-598.4" font-family="Times,serif" font-size="14.00">你知道自己的未来是什么样子的吗？</text>
<text text-anchor="middle" x="467" y="-578.8" font-family="Times,serif" font-size="14.00">未来基于个人和世界的复利</text>
</g>
<!-- 2 -->
<g id="node2" class="node"><title>2</title>
<ellipse fill="none" stroke="black" cx="467" cy="-466" rx="149.36" ry="33.2511"/>
<text text-anchor="middle" x="467" y="-474.4" font-family="Times,serif" font-size="14.00">你知道那条曲线究竟是什么吗？</text>
<text text-anchor="middle" x="467" y="-454.8" font-family="Times,serif" font-size="14.00">「复利曲线」</text>
</g>
<!-- 1&#45;&gt;2 -->
<g id="edge1" class="edge"><title>1&#45;&gt;2</title>
<path fill="none" stroke="black" d="M467,-556.306C467,-542.084 467,-525.224 467,-510.005"/>
<polygon fill="black" stroke="black" points="470.5,-509.784 467,-499.784 463.5,-509.784 470.5,-509.784"/>
<text text-anchor="middle" x="551" y="-526.6" font-family="Times,serif" font-size="14.00">未来基于个人和世界的复利</text>
</g>
<!-- 3 -->
<g id="node3" class="node"><title>3</title>
<ellipse fill="none" stroke="black" cx="467" cy="-342" rx="208.956" ry="33.2511"/>
<text text-anchor="middle" x="467" y="-350.4" font-family="Times,serif" font-size="14.00">究竟什么是「财富自由」？</text>
<text text-anchor="middle" x="467" y="-330.8" font-family="Times,serif" font-size="14.00">再也不用为了满足生活必须而出售自己的时间</text>
</g>
<!-- 2&#45;&gt;3 -->
<g id="edge2" class="edge"><title>2&#45;&gt;3</title>
<path fill="none" stroke="black" d="M467,-432.306C467,-418.084 467,-401.224 467,-386.005"/>
<polygon fill="black" stroke="black" points="470.5,-385.784 467,-375.784 463.5,-385.784 470.5,-385.784"/>
<text text-anchor="middle" x="614" y="-402.6" font-family="Times,serif" font-size="14.00">越过曲线，实现财富自由，首先要明确「概念」</text>
</g>
<!-- 4 -->
<g id="node4" class="node"><title>4</title>
<ellipse fill="none" stroke="black" cx="467" cy="-218" rx="139.184" ry="33.2511"/>
<text text-anchor="middle" x="467" y="-226.4" font-family="Times,serif" font-size="14.00">起步时最重要的是什么？</text>
<text text-anchor="middle" x="467" y="-206.8" font-family="Times,serif" font-size="14.00">用MAKE起步，然后「改进」</text>
</g>
<!-- 3&#45;&gt;4 -->
<g id="edge3" class="edge"><title>3&#45;&gt;4</title>
<path fill="none" stroke="black" d="M467,-308.306C467,-294.084 467,-277.224 467,-262.005"/>
<polygon fill="black" stroke="black" points="470.5,-261.784 467,-251.784 463.5,-261.784 470.5,-261.784"/>
<text text-anchor="middle" x="586" y="-278.6" font-family="Times,serif" font-size="14.00">出售时间的方式就是「个人商业模式」</text>
</g>
<!-- 5 -->
<g id="node5" class="node"><title>5</title>
<ellipse fill="none" stroke="black" cx="467" cy="-112" rx="159.21" ry="33.2511"/>
<text text-anchor="middle" x="467" y="-120.4" font-family="Times,serif" font-size="14.00">你认真考虑过自己的商业模式吗？</text>
<text text-anchor="middle" x="467" y="-100.8" font-family="Times,serif" font-size="14.00">三种商业模式</text>
</g>
<!-- 4&#45;&gt;5 -->
<g id="edge4" class="edge"><title>4&#45;&gt;5</title>
<path fill="none" stroke="white" d="M467,-184.379C467,-175.28 467,-165.257 467,-155.671"/>
<polygon fill="white" stroke="white" points="470.5,-155.505 467,-145.505 463.5,-155.505 470.5,-155.505"/>
</g>
<!-- 6 -->
<g id="node6" class="node"><title>6</title>
<ellipse fill="none" stroke="black" cx="149" cy="-20" rx="149.36" ry="19.5322"/>
<text text-anchor="middle" x="149" y="-18.6" font-family="Times,serif" font-size="14.00">如何优化第一种个人商业模式？</text>
</g>
<!-- 5&#45;&gt;6 -->
<g id="edge5" class="edge"><title>5&#45;&gt;6</title>
<path fill="none" stroke="black" d="M374.166,-84.7263C324.466,-70.6601 264.267,-53.6228 218.623,-40.7047"/>
<polygon fill="black" stroke="black" points="219.396,-37.2859 208.821,-37.9304 217.49,-44.0214 219.396,-37.2859"/>
</g>
<!-- 7 -->
<g id="node7" class="node"><title>7</title>
<ellipse fill="none" stroke="black" cx="467" cy="-20" rx="149.36" ry="19.5322"/>
<text text-anchor="middle" x="467" y="-18.6" font-family="Times,serif" font-size="14.00">如何优化第二种个人商业模式？</text>
</g>
<!-- 5&#45;&gt;7 -->
<g id="edge6" class="edge"><title>5&#45;&gt;7</title>
<path fill="none" stroke="black" d="M467,-78.5079C467,-69.0987 467,-58.8969 467,-49.7347"/>
<polygon fill="black" stroke="black" points="470.5,-49.5662 467,-39.5662 463.5,-49.5662 470.5,-49.5662"/>
</g>
<!-- 8 -->
<g id="node8" class="node"><title>8</title>
<ellipse fill="none" stroke="black" cx="785" cy="-20" rx="149.36" ry="19.5322"/>
<text text-anchor="middle" x="785" y="-18.6" font-family="Times,serif" font-size="14.00">如何优化第三种个人商业模式？</text>
</g>
<!-- 5&#45;&gt;8 -->
<g id="edge7" class="edge"><title>5&#45;&gt;8</title>
<path fill="none" stroke="black" d="M559.834,-84.7263C609.534,-70.6601 669.733,-53.6228 715.377,-40.7047"/>
<polygon fill="black" stroke="black" points="716.51,-44.0214 725.179,-37.9304 714.604,-37.2859 716.51,-44.0214"/>
</g>
</g>
</svg>
